<!-- Generator: Adobe Illustrator 24.0.2, SVG Export Plug-In  -->
<svg version="1.1" xmlns="http://www.w3.org/2000/svg" xmlns:xlink="http://www.w3.org/1999/xlink" x="0px" y="0px" width="156.3px"
	 height="137px" viewBox="0 0 156.3 137" style="enable-background:new 0 0 156.3 137;" xml:space="preserve">
<style type="text/css">
	.st0{clip-path:url(#SVGID_2_);}
	.st1{opacity:0.43;clip-path:url(#SVGID_4_);}
	.st2{clip-path:url(#SVGID_6_);fill:#A1A1A1;}
	.st3{clip-path:url(#SVGID_6_);fill:#D04C52;}
	.st4{clip-path:url(#SVGID_8_);}
	.st5{opacity:0.43;clip-path:url(#SVGID_10_);}
	.st6{clip-path:url(#SVGID_12_);fill:#A1A1A1;}
	.st7{clip-path:url(#SVGID_12_);fill:#D04C52;}
</style>
<defs>
</defs>
<g>
	<defs>
		<rect id="SVGID_1_" x="17" y="13" width="122.3" height="123"/>
	</defs>
	<clipPath id="SVGID_2_">
		<use xlink:href="#SVGID_1_"  style="overflow:visible;"/>
	</clipPath>
	<g class="st0">
		<defs>
			<rect id="SVGID_3_" x="17" y="13" width="122.3" height="123"/>
		</defs>
		<clipPath id="SVGID_4_">
			<use xlink:href="#SVGID_3_"  style="overflow:visible;"/>
		</clipPath>
		<g class="st1">
			<g>
				<defs>
					<rect id="SVGID_5_" width="156.3" height="137"/>
				</defs>
				<clipPath id="SVGID_6_">
					<use xlink:href="#SVGID_5_"  style="overflow:visible;"/>
				</clipPath>
				<path class="st2" d="M85.1,35.2h-1.3c-1.7,0.8-3.6,1.2-5.6,1.2s-3.9-0.4-5.6-1.2h-1.3c-5.7,0-10.4,4.6-10.4,10.4v3.2
					c0,2,1.7,3.7,3.7,3.7h27.1c2,0,3.7-1.7,3.7-3.7v-3.2C95.4,39.8,90.8,35.2,85.1,35.2 M78.2,32.7c5.4,0,9.9-4.4,9.9-9.9
					S83.6,13,78.2,13s-9.9,4.4-9.9,9.9S72.7,32.7,78.2,32.7"/>
				<path class="st3" d="M61.7,77h-1.3c-1.7,0.8-3.6,1.2-5.6,1.2c-2,0-3.9-0.4-5.6-1.2h-1.3c-5.7,0-10.4,4.6-10.4,10.4v3.2
					c0,2,1.7,3.7,3.7,3.7h27.1c2,0,3.7-1.7,3.7-3.7v-3.2C72,81.6,67.4,77,61.7,77 M54.8,74.5c5.4,0,9.9-4.4,9.9-9.9
					s-4.4-9.9-9.9-9.9s-9.9,4.4-9.9,9.9S49.3,74.5,54.8,74.5"/>
				<path class="st3" d="M108.7,77h-1.3c-1.7,0.8-3.6,1.2-5.6,1.2c-2,0-3.9-0.4-5.6-1.2h-1.3c-5.7,0-10.4,4.6-10.4,10.4v3.2
					c0,2,1.7,3.7,3.7,3.7h27.1c2,0,3.7-1.7,3.7-3.7v-3.2C119.1,81.6,114.4,77,108.7,77 M101.8,74.5c5.4,0,9.9-4.4,9.9-9.9
					s-4.4-9.9-9.9-9.9c-5.5,0-9.9,4.4-9.9,9.9S96.3,74.5,101.8,74.5"/>
				<path class="st3" d="M85.1,118.8h-1.3c-1.7,0.8-3.6,1.2-5.6,1.2s-3.9-0.4-5.6-1.2h-1.3c-5.7,0-10.4,4.6-10.4,10.4v3.2
					c0,2,1.7,3.7,3.7,3.7h27.1c2,0,3.7-1.7,3.7-3.7v-3.2C95.4,123.4,90.8,118.8,85.1,118.8 M78.2,116.3c5.4,0,9.9-4.4,9.9-9.9
					s-4.4-9.9-9.9-9.9s-9.9,4.4-9.9,9.9S72.7,116.3,78.2,116.3"/>
				<path class="st2" d="M41.2,118.8h-1.3c-1.7,0.8-3.6,1.2-5.6,1.2c-2,0-3.9-0.4-5.6-1.2h-1.3c-5.7,0-10.4,4.6-10.4,10.4v3.2
					c0,2,1.7,3.7,3.7,3.7h27.1c2,0,3.7-1.7,3.7-3.7v-3.2C51.5,123.4,46.9,118.8,41.2,118.8 M34.3,116.3c5.4,0,9.9-4.4,9.9-9.9
					s-4.4-9.9-9.9-9.9s-9.9,4.4-9.9,9.9S28.8,116.3,34.3,116.3"/>
				<path class="st2" d="M129,118.8h-1.3c-1.7,0.8-3.6,1.2-5.6,1.2c-2,0-3.9-0.4-5.6-1.2h-1.3c-5.7,0-10.4,4.6-10.4,10.4v3.2
					c0,2,1.7,3.7,3.7,3.7h27.1c2,0,3.7-1.7,3.7-3.7v-3.2C139.3,123.4,134.7,118.8,129,118.8 M122,116.3c5.4,0,9.9-4.4,9.9-9.9
					s-4.4-9.9-9.9-9.9c-5.5,0-9.9,4.4-9.9,9.9S116.6,116.3,122,116.3"/>
			</g>
		</g>
	</g>
</g>
</svg>
