<!-- Generator: Adobe Illustrator 24.0.2, SVG Export Plug-In  -->
<svg version="1.1" xmlns="http://www.w3.org/2000/svg" xmlns:xlink="http://www.w3.org/1999/xlink" x="0px" y="0px" width="94.5px"
	 height="94.5px" viewBox="0 0 94.5 94.5" style="enable-background:new 0 0 94.5 94.5;" xml:space="preserve">
<style type="text/css">
	.st0{clip-path:url(#SVGID_2_);fill:#505050;}
	.st1{clip-path:url(#SVGID_4_);fill:#505050;}
</style>
<defs>
</defs>
<g>
	<defs>
		<rect id="SVGID_1_" y="0" width="94.5" height="94.5"/>
	</defs>
	<clipPath id="SVGID_2_">
		<use xlink:href="#SVGID_1_"  style="overflow:visible;"/>
	</clipPath>
	<path class="st0" d="M73.6,73.7c-0.8,0-1.6,0.4-2.4,1.1c-0.3,0.3-0.6,0.6-1.1,1.1l2.6,2.9c0.6-0.4,1-0.8,1.3-1
		c0.7-0.7,1.2-1.3,1.4-2c0.2-0.6,0-1.2-0.4-1.6C74.7,73.9,74.2,73.7,73.6,73.7"/>
	<path class="st0" d="M58,77.6c-0.5,0-1.1,0.1-1.6,0.2c-2.8,0.8-4.3,3.2-3.5,5.6c0.6,2,2.3,3.3,4.4,3.3c0.5,0,1-0.1,1.6-0.2
		c2.8-0.8,4.3-3.2,3.5-5.6C61.8,78.9,60.1,77.6,58,77.6"/>
	<path class="st0" d="M70.7,71.3c-0.2-0.3-0.5-0.4-0.9-0.5c-0.5-0.1-1.2,0.2-1.9,0.8c-0.3,0.2-0.5,0.5-0.9,0.9l2,2.2
		c0.3-0.2,0.5-0.4,0.7-0.6c0.6-0.5,1-1.1,1.2-1.6C71.1,72.1,71,71.7,70.7,71.3"/>
	<path class="st0" d="M68.3,22.8c1.1,1,2.4,1.5,3.6,1.5c1.2,0,2.2-0.5,3-1.3c0.8-0.9,1.2-2,1.1-3.2c-0.2-1.2-0.8-2.4-2-3.4
		c-0.5-0.4-1-0.8-1.5-1.1l-5.5,6C67.5,22,67.9,22.5,68.3,22.8"/>
	<path class="st0" d="M89.4,50.6L88,59l-0.2-0.4c-0.4-0.8-0.9-0.9-1.7-1L79,56.4c-0.9-0.2-1.4-0.1-1.9,0.4l-0.3,0.3l1.4-7.8l2.1,0.4
		L80,49.8c-0.5,0.6-0.8,1.2-1,2.2c-0.1,0.5-0.1,1.1-0.1,1.9l2.8,0.5l0.6-3.2l2.1,0.4l-0.3,0.2c-0.4,0.3-0.5,0.9-0.7,1.9l-0.2,1
		l3.7,0.6c0.3-0.9,0.5-1.7,0.6-2.2c0.2-1.3,0.1-2.5-0.3-3.7L87.1,49L89.4,50.6L89.4,50.6z M86.2,63.8l-4.1,7.5l-0.1-0.4
		c-0.1-0.8-0.6-1.1-1.3-1.5l-6.3-3.4c-0.4-0.2-0.8-0.4-1.2-0.4c-0.2,0-0.5,0.1-0.7,0.2l-0.4,0.2l2.2-4l0.1,0.4
		c0.1,0.8,0.6,1.1,1.3,1.5l6.7,3.6c0.6-0.8,1-1.5,1.3-2c0.6-1.2,0.9-2.4,0.9-3.6v-0.4L86.2,63.8L86.2,63.8z M74.7,79.2l-3.5,3.1
		l0.1-0.4c0.2-0.8-0.1-1.3-0.7-1.9l-4.8-5.4c-0.5-0.6-0.9-1-1.8-0.9l-0.4,0l3.7-3.3c1.3-1.1,2.5-1.7,3.5-1.7c0.6,0,1.2,0.2,1.6,0.7
		c0.6,0.7,0.6,1.6,0.1,2.7c1.8-0.9,3.2-0.7,4.2,0.3C78.2,74.3,77.5,76.8,74.7,79.2 M63.8,84.9c-1,1.4-2.5,2.4-4.4,3
		c-1,0.3-1.9,0.4-2.9,0.4c-1,0-1.9-0.2-2.7-0.5c-1.6-0.6-2.8-1.9-3.3-3.5c-0.4-1.2-0.2-2.6,0.3-3.8c0.9-1.9,2.7-3.4,5.1-4.1
		c1-0.3,2-0.4,3-0.4c0.9,0,1.8,0.2,2.6,0.5c1.7,0.6,2.8,1.9,3.3,3.6C65.3,81.6,64.9,83.4,63.8,84.9 M47.9,78.9
		c-0.8,0.4-0.9,0.9-1.1,1.7L45,90l-0.1,0c-1.2-0.3-1.9-1.2-2.6-2.3L37,79.5l-1.2,6.3c-0.2,0.8-0.2,1.3,0.4,2l0.3,0.3l-3.8-0.7
		l0.4-0.2c0.8-0.4,0.9-0.9,1.1-1.7l1.3-7.1c0.2-0.8,0.2-1.3-0.4-1.9l-0.3-0.3l3.1,0.6l0,0l6,9.4l1.1-6c0.2-0.8,0.2-1.3-0.4-1.9
		L44.4,78l3.8,0.7L47.9,78.9z M32,76.4c-0.3-0.7-0.8-1.2-1.7-1.8c-0.4-0.3-0.9-0.5-1.7-0.9l-1.6,2.4l2.7,1.8l-1.1,1.8l-0.1-0.3
		c-0.1-0.5-0.6-0.9-1.4-1.4l-0.9-0.6l-2,3.1c0.7,0.6,1.4,1.1,1.8,1.4c1.1,0.7,2.2,1.1,3.5,1.2l0.4,0l-2.4,1.6l-0.1,0L20.4,80l0.4,0
		c0.9-0.1,1.2-0.5,1.6-1.2l4-6c0.4-0.7,0.7-1.2,0.4-1.9l-0.2-0.4l6.6,4.3l-1.2,1.8L32,76.4z M17.3,74.7c-0.1,0.6-0.2,1.3-0.2,2.3
		l0,0.4l-1-1.2c-0.6-0.9-0.8-2-0.6-2.9L17,67l0.2,0.2c1.2,1.1,2.1,1.7,2.9,1.7c0.3,0,0.6-0.1,0.9-0.3c0.4-0.3,0.6-0.7,0.6-1.3
		c0-0.6-0.2-1.2-0.6-1.7c-0.2-0.2-0.5-0.6-0.9-1l-6.3,4.6c-0.7,0.5-1.1,0.8-1.1,1.7l0,0.4L10,67.6l0.4,0.1c0.8,0.2,1.3,0,1.9-0.5
		l5.8-4.2c0.7-0.5,1.1-0.8,1.1-1.7v-0.4l3,4.1c0.8,1.1,1.2,2.2,1.3,3.2c0,1-0.3,1.8-1,2.3c-1,0.7-2.3,0.5-4-0.6L17.3,74.7z
		 M7.7,62.3c-0.7-1.6-1.2-3-1.5-4.3c-0.4-1.8-0.4-3.4-0.1-4.7c0.5-2.2,2.1-3.8,4.1-4.3c0.4-0.1,0.8-0.1,1.2-0.1
		c1.3,0,2.5,0.5,3.6,1.5c1.4,1.1,2.3,2.8,2.7,4.8c0.2,0.9,0.3,2,0.4,3.4l0,0.1l-2.1,0.5l0.1-0.2c0.3-1.2,0.4-2.4,0.1-3.5
		c-0.6-2.5-2.2-4.1-4.4-4.1c-0.3,0-0.7,0-1.1,0.1c-1.3,0.3-2.3,1-2.9,2.1c-0.6,1.1-0.7,2.5-0.3,4.1c0.2,0.7,0.5,1.5,0.9,2.3l2.2-0.5
		c0.8-0.2,1.3-0.3,1.6-1.1l0.2-0.4l0.7,3.1l-5.5,1.2L7.7,62.3z M13.5,42c0,1.1-0.9,2.1-2,2.1c-1.1,0-2.1-0.9-2.1-2.1
		c0-1.1,0.9-2.1,2.1-2.1C12.5,39.9,13.5,40.9,13.5,42 M8.4,30.5l0.1,0c0.3,0.1,0.6,0.2,0.9,0.3l8.3,0.8L13.4,26
		c-0.3-0.3-0.6-0.6-0.9-0.8c-0.2-0.1-0.5-0.1-1.2,0.1L11,25.4l1.7-3.2l7.8,10.4l-0.1,0.1c-0.7,0.8-1.5,1.1-2.8,1.1
		c-0.3,0-0.5,0-0.8,0l-7-0.6c-0.3,0-0.7-0.1-1.1-0.1c-0.5,0-1,0-1.4,0.1l-0.3,0.1L8.4,30.5z M18.9,15.9L18.9,15.9l-0.1,0.4
		c-0.1,0.8,0.2,1.2,0.8,1.8l5.1,5.1c0.6,0.6,1,0.9,1.8,0.8l0.4-0.1l-3.2,3.2l0.1-0.4c0.1-0.8-0.2-1.3-0.8-1.8L18,19.8
		c-0.6-0.6-1-0.9-1.8-0.8l-0.4,0.1L18.9,15.9z M26.2,10.6L26.2,10.6L26.1,11c-0.3,0.8-0.1,1.3,0.3,2l3.8,6.6c0.9-0.4,1.6-0.7,2.1-1
		c1.1-0.7,2-1.5,2.7-2.6l0.2-0.3l0.4,2.8l-7.5,4.3l0.2-0.4c0.3-0.8,0.1-1.3-0.3-2l-3.6-6.2c-0.4-0.7-0.7-1.2-1.6-1.2l-0.4,0
		L26.2,10.6z M39.2,5.8L39.2,5.8l-0.3,0.3c-0.6,0.6-0.5,1.1-0.4,1.9l1.5,7.5c1-0.1,1.8-0.2,2.3-0.3c1.3-0.3,2.4-0.8,3.4-1.6l0.3-0.3
		l-0.6,2.8L37,17.9l0.3-0.3c0.6-0.6,0.5-1.2,0.4-2l-1.4-7.1c-0.2-0.8-0.3-1.3-1.1-1.7l-0.4-0.2L39.2,5.8z M46.8,21L46.8,21
		c14.7-0.3,26.8,11.4,27,26.1c0.3,14.7-11.4,26.8-26.1,27C33.1,74.4,21,62.7,20.7,48C20.4,33.4,32.1,21.3,46.8,21 M47.4,15.9
		c0.7-0.4,0.9-0.9,1-1.7l1-7.1c0.1-0.8,0.1-1.3-0.5-1.9l-0.3-0.3l7.8,1.1L56.1,8l-0.2-0.2c-0.6-0.5-1.3-0.8-2.3-0.9
		c-0.5-0.1-1.1-0.1-1.9-0.1l-0.4,2.9l3.2,0.4l-0.3,2.1L54.1,12c-0.3-0.4-0.9-0.5-1.9-0.6l-1.1-0.1l-0.5,3.7c0.9,0.2,1.7,0.4,2.3,0.5
		c1.3,0.2,2.5,0.1,3.7-0.4l0.4-0.1l-1.5,2.5L47,16.1L47.4,15.9z M63.7,20.2c0.8,0.1,1.2-0.3,1.8-0.9l4.9-5.3c0.6-0.6,0.9-1,0.7-1.8
		L71,11.8l3.7,3.4c1.5,1.4,2.6,2.7,3.1,4.7c0.5,1.9,0.1,3.4-1.1,4.7c-1.1,1.1-2.4,1.7-4,1.7h-0.1c-2,0-3.8-0.9-6.2-3.1l-3.3-3
		L63.7,20.2z M85.4,42c0,1.1-0.9,2.1-2,2.1c-1.1,0-2.1-0.9-2.1-2.1c0-1.1,0.9-2.1,2-2.1C84.4,39.9,85.4,40.9,85.4,42 M82.1,27.1
		c0.7-0.3,1.2-0.6,1.4-1.4l0.1-0.4l3.3,7.2L85,33.3l0-0.2c0.1-0.7-0.1-1.5-0.5-2.4c-0.2-0.4-0.5-1-1-1.6L81,30.3l1.4,3l-1.9,0.9
		l0.1-0.3c0.2-0.5-0.1-1-0.5-1.9l-0.5-1l-3.4,1.6c0.3,0.9,0.6,1.7,0.8,2.2c0.6,1.2,1.3,2.1,2.4,2.9l0.3,0.2l-2.9,0.1l-3.7-7.8
		l0.4,0.2c0.3,0.2,0.6,0.2,0.8,0.2c0.4,0,0.8-0.2,1.2-0.4L82.1,27.1z M94.5,46.4C94,20.3,72.5-0.5,46.4,0C20.3,0.5-0.5,22,0,48.1
		c0.5,26.1,22,46.9,48.1,46.4C74.2,94,95,72.5,94.5,46.4"/>
	<path class="st0" d="M49.5,36.9c0.2-0.2,0.3-0.5,0.4-0.8c0.1-0.3,0.1-0.5,0.1-0.8l0-0.1l0-0.3l4.1,2.2l0,0.1l0,0.1l-0.1,0.1l0,0
		l-4.7-0.4L49.5,36.9z M48.2,32.9L48,32.8l3.5-3.3l0.1,0l0.1,0l0.1,0.1l0,0.1l-2,4.5l-0.1-0.2c-0.2-0.3-0.4-0.5-0.6-0.7
		C48.8,33.1,48.5,32.9,48.2,32.9 M47.7,42.1l-0.1,0.1l-0.1,0l-0.1-0.1l-0.1,0l-1-4.6l0.2,0.1c0.3,0.1,0.6,0.2,0.9,0.2
		c0.3,0,0.6-0.1,0.9-0.2l0.2-0.1L47.7,42.1z M46.1,33.3c-0.3,0.2-0.5,0.4-0.6,0.7l-0.1,0.2l-2-4.5l0.1-0.1l0-0.1l0.1,0l0.1,0
		l3.5,3.3l-0.2,0.1C46.6,32.9,46.3,33.1,46.1,33.3L46.1,33.3z M41,37.5L41,37.5l-0.1-0.1l0-0.1l0-0.1l4.1-2.2l0,0.3v0.1
		c0,0.3,0,0.5,0.1,0.8c0.1,0.3,0.2,0.6,0.4,0.8l0.2,0.2L41,37.5z M50.5,40.8c0-0.7-0.2-1.3-0.5-1.9c-0.1-0.2-0.4-0.6-0.6-0.8
		l0.5-0.3c0.2,0.2,0.4,0.6,0.5,0.7c0.4,0.5,1,0.9,1.7,1.1c1.6,0.5,3.4-0.3,3.9-1.8c0.5-1.5-0.4-3.2-2.1-3.7
		c-0.6-0.2-1.3-0.2-1.9-0.1c-0.2,0-0.7,0.2-1,0.3c0-0.2-0.1-0.4-0.2-0.5c0.2-0.1,0.7-0.2,0.8-0.3c0.6-0.2,1.2-0.7,1.6-1.3
		c1-1.4,0.8-3.3-0.5-4.2c-1.3-0.9-3.2-0.6-4.2,0.8c-0.4,0.5-0.6,1.2-0.7,1.8c0,0.2,0,0.7,0,1c-0.2,0-0.4,0-0.6,0c0-0.3,0-0.7,0-0.9
		c0-0.7-0.3-1.3-0.7-1.9c-1-1.4-2.9-1.8-4.2-0.8c-1.3,0.9-1.5,2.8-0.5,4.2c0.4,0.5,0.9,1,1.5,1.2c0.2,0.1,0.7,0.2,0.9,0.3L44.2,34
		l-0.1,0.3c-0.3-0.1-0.7-0.2-0.8-0.3c-0.6-0.2-1.4-0.1-2,0.1c-1.6,0.5-2.6,2.2-2.1,3.7c0.5,1.5,2.2,2.3,3.9,1.8
		c0.6-0.2,1.2-0.6,1.6-1.1c0.1-0.2,0.4-0.6,0.6-0.8l0.5,0.3c-0.1,0.2-0.4,0.6-0.5,0.7c-0.4,0.5-0.6,1.2-0.6,2c0,1.7,1.3,3.1,2.9,3.1
		C49.2,43.9,50.5,42.5,50.5,40.8"/>
	<path class="st0" d="M42.7,40.6l-0.3,0l-0.2,0c-0.5,0-0.9-0.1-1.4-0.3l-0.1-0.1l-0.1,0.2c-0.3,0.8-0.5,1.8-0.5,2.8
		c0,0.6,0.1,1.1,0.3,1.6l0,0.1h0.1l0.1,0c1.4,0,2.9-0.8,4-1.6l0.1-0.1l-0.1-0.1c-0.4-0.4-0.7-0.9-0.8-1.4l-0.1-0.3l-0.2,0.2
		c-0.9,0.9-1.6,1.5-2.2,1.9c0.2-0.7,0.5-1.6,1.1-2.7L42.7,40.6z"/>
	<path class="st0" d="M38.9,34.9L39,35l0.1-0.1c0.3-0.5,0.6-0.9,1.1-1.2l0.2-0.1l-0.2-0.1c-1.2-0.6-1.9-1.1-2.5-1.6
		c0.2,0,0.4,0,0.6,0c0.6,0,1.4,0.1,2.3,0.2l0.3,0l-0.1-0.2c-0.1-0.3-0.2-0.7-0.2-1.1l0-0.4l0-0.2h-0.2c-1.3,0-3.1,0.2-4.2,1.1
		l-0.1,0.1l0,0.1C36.5,32.9,37.8,34.1,38.9,34.9"/>
	<path class="st0" d="M51.3,41.5l-0.1,0.3c-0.1,0.5-0.4,1-0.8,1.4l-0.1,0.1l0.1,0.1c1.1,0.8,2.6,1.6,4,1.6l0.1,0l0.1,0l0-0.1
		c0.2-0.5,0.3-1.1,0.3-1.6c0-1-0.2-2-0.5-2.8l0-0.2l-0.1,0.1c-0.4,0.2-0.9,0.3-1.4,0.3l-0.2,0l-0.3,0l0.1,0.2c0.6,1.1,0.9,2,1.1,2.7
		c-0.7-0.4-1.4-1-2.2-1.9L51.3,41.5z"/>
	<path class="st0" d="M56.8,31.9c0.2,0,0.4,0,0.6,0c-0.6,0.5-1.3,1-2.5,1.6l-0.2,0.1l0.2,0.1c0.4,0.3,0.8,0.7,1.1,1.2l0.1,0.1
		l0.1-0.1c1.1-0.8,2.4-2,2.8-3.4l0-0.1l-0.1-0.1c-1.1-0.9-2.9-1.1-4.2-1.2h-0.2l0,0.2l0,0.4c0,0.4-0.1,0.8-0.2,1.1l-0.1,0.2l0.3,0
		C55.5,31.9,56.2,31.9,56.8,31.9"/>
	<path class="st0" d="M46.6,27.6l0.2,0.2l0-0.3c0.2-1.3,0.4-2.1,0.7-2.8c0.3,0.7,0.5,1.6,0.7,2.8l0,0.3l0.2-0.2
		c0.4-0.3,0.9-0.5,1.4-0.6l0.2,0L50,26.8c-0.4-1.3-1.2-2.9-2.4-3.7l-0.1-0.1l-0.1,0.1c-1.2,0.8-2,2.4-2.4,3.7L45,26.9l0.2,0
		C45.7,27.1,46.2,27.3,46.6,27.6"/>
	<path class="st0" d="M55.8,60.8l-0.1-0.3l-0.2,0.2c-0.9,0.9-1.6,1.5-2.2,1.9c0.2-0.7,0.5-1.6,1.1-2.7l0.1-0.2l-0.3,0l-0.2,0
		c-0.5,0-0.9-0.1-1.4-0.3l-0.1-0.1l-0.1,0.2c-0.3,0.8-0.5,1.8-0.5,2.8c0,0.6,0.1,1.1,0.3,1.6l0,0.1h0.1h0.1c1.4,0,2.9-0.8,4-1.6
		l0.1-0.1l-0.1-0.1C56.2,61.8,55.9,61.3,55.8,60.8"/>
	<path class="st0" d="M52,52.8l0.2-0.1L52,52.5c-1.2-0.6-1.9-1.1-2.5-1.6c0.2,0,0.4,0,0.6,0c0.6,0,1.4,0.1,2.3,0.2l0.3,0L52.6,51
		c-0.1-0.3-0.2-0.7-0.2-1.1l0-0.4l0-0.2h-0.2c-1.3,0-3.1,0.2-4.2,1.1l-0.1,0.1l0,0.1c0.4,1.4,1.7,2.6,2.7,3.4l0.1,0.1l0.1-0.1
		C51.2,53.5,51.6,53,52,52.8"/>
	<path class="st0" d="M66.2,59.3l-0.1,0.1c-0.4,0.2-0.9,0.3-1.4,0.3l-0.2,0l-0.3,0l0.1,0.2c0.6,1.1,0.9,2,1.1,2.7
		c-0.7-0.4-1.4-0.9-2.3-1.9l-0.2-0.2L63,60.8c-0.1,0.5-0.4,1-0.8,1.4l-0.1,0.1l0.1,0.1c1.1,0.8,2.6,1.6,4,1.6l0.1,0h0.1l0-0.1
		c0.2-0.5,0.3-1.1,0.3-1.6c0-1-0.2-1.9-0.5-2.8L66.2,59.3z"/>
	<path class="st0" d="M66.5,49.3h-0.2l0,0.2l0,0.4c0,0.4-0.1,0.8-0.2,1.1l-0.1,0.2l0.3,0c0.9-0.2,1.7-0.2,2.3-0.2c0.2,0,0.4,0,0.6,0
		c-0.6,0.5-1.3,1-2.5,1.6l-0.2,0.1l0.2,0.1c0.4,0.3,0.8,0.7,1.1,1.2l0.1,0.1l0.1-0.1c1.1-0.8,2.4-2,2.8-3.4l0-0.1l-0.1-0.1
		C69.6,49.5,67.9,49.3,66.5,49.3"/>
	<path class="st0" d="M58.5,46.7l0.2,0.2l0-0.3c0.2-1.3,0.4-2.1,0.7-2.9c0.3,0.7,0.5,1.6,0.7,2.9l0,0.3l0.2-0.2
		c0.4-0.3,0.9-0.5,1.4-0.6l0.2,0l-0.1-0.2c-0.4-1.3-1.2-2.9-2.4-3.7l-0.1-0.1l-0.1,0.1c-1.2,0.8-2,2.4-2.4,3.7l0,0.2l0.2,0
		C57.6,46.2,58.1,46.4,58.5,46.7"/>
	<path class="st0" d="M66,56.5L66,56.5l-4.8-0.4l0.2-0.2c0.2-0.2,0.3-0.5,0.4-0.8c0.1-0.3,0.1-0.5,0.1-0.8l0-0.1l0-0.3l4.1,2.2
		l0,0.1l0,0.1L66,56.5z M60,51.9l-0.2-0.1l3.5-3.3l0.1,0l0.1,0l0.1,0.1l0,0.1l-2,4.5L61.5,53c-0.2-0.3-0.4-0.5-0.6-0.7
		C60.6,52.1,60.3,52,60,51.9 M59.5,61.2l-0.1,0.1l-0.1,0l-0.1-0.1l-0.1,0l-1-4.6l0.2,0.1c0.3,0.1,0.6,0.2,0.9,0.2
		c0.3,0,0.6-0.1,0.9-0.2l0.2-0.1L59.5,61.2z M57.9,52.3c-0.3,0.2-0.5,0.4-0.6,0.6l-0.1,0.2l-2-4.5l0.1-0.1l0-0.1l0.1,0l0.1,0
		l3.5,3.3l-0.2,0.1C58.4,52,58.2,52.1,57.9,52.3 M52.8,56.5L52.8,56.5l-0.1-0.1l0-0.1l0-0.1l4.1-2.2l0,0.3v0.1c0,0.3,0,0.5,0.1,0.8
		c0.1,0.3,0.2,0.6,0.4,0.8l0.2,0.2L52.8,56.5z M65.7,53.2c-0.6-0.2-1.3-0.2-1.9-0.1c-0.2,0.1-0.7,0.2-1,0.3c0-0.2-0.1-0.4-0.2-0.5
		c0.2-0.1,0.7-0.2,0.8-0.3c0.6-0.2,1.2-0.7,1.6-1.3c1-1.4,0.8-3.3-0.5-4.2c-1.3-0.9-3.2-0.6-4.2,0.8c-0.4,0.5-0.6,1.2-0.7,1.8
		c0,0.2,0,0.7,0,1c-0.2,0-0.4,0-0.6,0c0-0.3,0-0.7,0-0.9c0-0.7-0.3-1.3-0.7-1.9c-1-1.4-2.9-1.8-4.2-0.8c-1.3,0.9-1.5,2.8-0.5,4.2
		c0.4,0.5,0.9,1,1.5,1.2c0.2,0.1,0.7,0.2,0.9,0.3L56,53.1L56,53.4c-0.3-0.1-0.7-0.2-0.8-0.2c-0.6-0.2-1.4-0.2-2,0.1
		c-1.6,0.5-2.6,2.2-2.1,3.7c0.5,1.5,2.2,2.3,3.9,1.8c0.6-0.2,1.2-0.6,1.6-1.1c0.1-0.2,0.4-0.6,0.6-0.8l0.5,0.3
		c-0.1,0.2-0.4,0.6-0.5,0.7c-0.4,0.5-0.6,1.2-0.6,2c0,1.7,1.3,3.1,2.9,3.1s2.9-1.4,2.9-3.1c0-0.7-0.2-1.3-0.5-1.9
		c-0.1-0.2-0.4-0.6-0.6-0.8l0.5-0.3c0.2,0.2,0.4,0.6,0.5,0.7c0.4,0.5,1,0.9,1.7,1.1c1.6,0.5,3.4-0.3,3.9-1.8
		C68.3,55.4,67.4,53.7,65.7,53.2"/>
	<path class="st0" d="M31.5,60.8l-0.1-0.3l-0.2,0.2c-0.9,0.9-1.6,1.5-2.2,1.9c0.2-0.7,0.5-1.6,1.1-2.7l0.1-0.2l-0.3,0l-0.2,0
		c-0.5,0-0.9-0.1-1.4-0.3l-0.1-0.1l-0.1,0.2c-0.3,0.8-0.5,1.8-0.5,2.8c0,0.6,0.1,1.1,0.3,1.6l0,0.1h0.1h0.1c1.4,0,2.9-0.8,4-1.6
		l0.1-0.1l-0.1-0.1C31.9,61.8,31.6,61.3,31.5,60.8"/>
	<path class="st0" d="M27.7,52.8l0.2-0.1l-0.2-0.1c-1.2-0.6-1.9-1.1-2.5-1.6c0.2,0,0.4,0,0.6,0c0.6,0,1.4,0.1,2.3,0.2l0.3,0L28.3,51
		c-0.1-0.3-0.2-0.7-0.2-1.1l0-0.4l0-0.2h-0.2c-1.3,0-3.1,0.2-4.2,1.1l-0.1,0.1l0,0.1c0.4,1.4,1.7,2.6,2.7,3.4l0.1,0.1l0.1-0.1
		C26.9,53.5,27.3,53,27.7,52.8"/>
	<path class="st0" d="M41.9,59.3l-0.1,0.1c-0.4,0.2-0.9,0.3-1.4,0.3l-0.2,0l-0.3,0l0.1,0.2c0.6,1.1,0.9,2,1.1,2.7
		c-0.7-0.4-1.4-0.9-2.3-1.9l-0.2-0.2l-0.1,0.3c-0.1,0.5-0.4,1-0.8,1.4l-0.1,0.1l0.1,0.1c1.1,0.8,2.6,1.6,4,1.6l0.1,0h0.1l0-0.1
		c0.2-0.5,0.3-1.1,0.3-1.6c0-1-0.2-1.9-0.5-2.8L41.9,59.3z"/>
	<path class="st0" d="M42.2,49.3h-0.2l0,0.2l0,0.4c0,0.4-0.1,0.8-0.2,1.1l-0.1,0.2l0.3,0C43,51,43.7,51,44.4,51c0.2,0,0.4,0,0.6,0
		c-0.6,0.5-1.3,1-2.5,1.6l-0.2,0.1l0.2,0.1c0.4,0.3,0.8,0.7,1.1,1.2l0.1,0.1l0.1-0.1c1.1-0.8,2.4-2,2.8-3.4l0-0.1l-0.1-0.1
		C45.3,49.5,43.6,49.3,42.2,49.3"/>
	<path class="st0" d="M34.1,46.7l0.2,0.2l0-0.3c0.2-1.3,0.4-2.1,0.7-2.9c0.3,0.7,0.5,1.6,0.7,2.9l0,0.3l0.2-0.2
		c0.4-0.3,0.9-0.5,1.4-0.6l0.2,0l-0.1-0.2c-0.4-1.3-1.2-2.9-2.4-3.7l-0.1-0.1L35,42.2c-1.2,0.8-2,2.4-2.4,3.7l0,0.2l0.2,0
		C33.2,46.2,33.8,46.4,34.1,46.7"/>
	<path class="st0" d="M41.6,56.5L41.6,56.5l-4.8-0.4l0.2-0.2c0.2-0.2,0.3-0.5,0.4-0.8c0.1-0.3,0.1-0.5,0.1-0.8l0-0.1l0-0.3l4.1,2.2
		l0,0.1l0,0.1L41.6,56.5z M35.7,51.9l-0.2-0.1l3.5-3.3l0.1,0l0.1,0l0.1,0.1l0,0.1l-2,4.5L37.2,53c-0.2-0.3-0.4-0.5-0.6-0.7
		C36.3,52.1,36,52,35.7,51.9 M35.2,61.2l-0.1,0.1l-0.1,0l-0.1-0.1l-0.1,0l-1-4.6l0.2,0.1c0.3,0.1,0.6,0.2,0.9,0.2
		c0.3,0,0.6-0.1,0.9-0.2l0.2-0.1L35.2,61.2z M33.6,52.3c-0.3,0.2-0.5,0.4-0.6,0.6l-0.1,0.2l-2-4.5l0.1-0.1l0-0.1l0.1,0l0.1,0
		l3.5,3.3l-0.2,0.1C34.1,52,33.8,52.1,33.6,52.3 M28.5,56.5L28.5,56.5l-0.1-0.1l0-0.1l0-0.1l4.1-2.2l0,0.3v0.1c0,0.3,0,0.5,0.1,0.8
		c0.1,0.3,0.2,0.6,0.4,0.8l0.2,0.2L28.5,56.5z M41.4,53.2c-0.6-0.2-1.3-0.2-1.9-0.1c-0.2,0.1-0.7,0.2-1,0.3c0-0.2-0.1-0.4-0.2-0.5
		c0.2-0.1,0.7-0.2,0.8-0.3c0.6-0.2,1.2-0.7,1.6-1.3c1-1.4,0.8-3.3-0.5-4.2c-1.3-0.9-3.2-0.6-4.2,0.8c-0.4,0.5-0.6,1.2-0.7,1.8
		c0,0.2,0,0.7,0,1c-0.2,0-0.4,0-0.6,0c0-0.3,0-0.7,0-0.9c0-0.7-0.3-1.3-0.7-1.9c-1-1.4-2.9-1.8-4.2-0.8c-1.3,0.9-1.5,2.8-0.5,4.2
		c0.4,0.5,0.9,1,1.5,1.2c0.2,0.1,0.7,0.2,0.9,0.3l-0.1,0.3l-0.1,0.3c-0.3-0.1-0.7-0.2-0.8-0.2c-0.6-0.2-1.4-0.2-2,0.1
		c-1.6,0.5-2.6,2.2-2.1,3.7c0.5,1.5,2.2,2.3,3.9,1.8c0.6-0.2,1.2-0.6,1.6-1.1c0.1-0.2,0.4-0.6,0.6-0.8l0.5,0.3
		c-0.1,0.2-0.4,0.6-0.5,0.7c-0.4,0.5-0.6,1.2-0.6,2c0,1.7,1.3,3.1,2.9,3.1s2.9-1.4,2.9-3.1c0-0.7-0.2-1.3-0.5-1.9
		c-0.1-0.2-0.4-0.6-0.6-0.8l0.5-0.3c0.2,0.2,0.4,0.6,0.5,0.7c0.4,0.5,1,0.9,1.7,1.1c1.6,0.5,3.4-0.3,3.9-1.8
		C44,55.4,43,53.7,41.4,53.2"/>
</g>
</svg>
