<!-- Generator: Adobe Illustrator 24.0.2, SVG Export Plug-In  -->
<svg version="1.1" xmlns="http://www.w3.org/2000/svg" xmlns:xlink="http://www.w3.org/1999/xlink" x="0px" y="0px" width="34.2px"
	 height="35.6px" viewBox="0 0 34.2 35.6" style="enable-background:new 0 0 34.2 35.6;" xml:space="preserve">
<style type="text/css">
	.st0{clip-path:url(#SVGID_2_);fill:#FFFFFF;}
	.st1{clip-path:url(#SVGID_4_);fill:#FFFFFF;}
</style>
<defs>
</defs>
<g>
	<defs>
		<rect id="SVGID_1_" y="0" width="34.2" height="35.6"/>
	</defs>
	<clipPath id="SVGID_2_">
		<use xlink:href="#SVGID_1_"  style="overflow:visible;"/>
	</clipPath>
	<path class="st0" d="M30.8,25.4H33v9h-2.1V25.4z M31.9,21.4c0.6,0,1.1,0.5,1.1,1.1c0,0,0,0,0,0v1.6h-2.1v-1.6
		C30.8,21.9,31.3,21.4,31.9,21.4C31.9,21.4,31.9,21.4,31.9,21.4 M1.3,25.4h2.1v9H1.3V25.4z M2.3,21.4c0.6,0,1.1,0.5,1.1,1.1
		c0,0,0,0,0,0v1.6H1.3v-1.6C1.3,21.9,1.7,21.4,2.3,21.4C2.3,21.4,2.3,21.4,2.3,21.4 M31.9,20.2c-1.3,0-2.3,1.1-2.3,2.3c0,0,0,0,0,0
		v2.6c-0.2,1.4-1.4,2.7-3.5,3.7c-2.4,1.2-5.6,1.9-9,1.9s-6.6-0.7-9-1.9c-2-1-3.2-2.3-3.5-3.7v-2.6c0-1.3-1-2.3-2.3-2.3
		c-1.3,0-2.3,1-2.3,2.3V35c0,0.3,0.3,0.6,0.6,0.6c0,0,0,0,0,0h3.4c0.3,0,0.6-0.2,0.6-0.6c0,0,0,0,0,0v-7.1c0.7,0.8,1.7,1.5,2.9,2.1
		c2.6,1.3,6,2.1,9.5,2.1c3.6,0,7-0.7,9.6-2.1c1.2-0.6,2.2-1.4,2.9-2.1V35c0,0.3,0.2,0.6,0.5,0.6c0,0,0,0,0,0h3.4
		c0.3,0,0.6-0.3,0.6-0.6c0,0,0,0,0,0V22.5C34.2,21.2,33.2,20.2,31.9,20.2C31.9,20.2,31.9,20.2,31.9,20.2"/>
	<path class="st0" d="M1.9,0.8h1.2l2.5,3.8l0,0c0.4,0.5,0.3,1.2-0.1,1.7L3.5,8.8c-0.6,0.7-0.7,1.7-0.2,2.5L5.8,16h-4V0.8z M10.7,16
		h-4l-2.8-5.2c-0.3-0.5-0.2-1.1,0.1-1.6l2.1-2.5C6.7,6,6.8,5,6.2,4.2L4,0.8h6.7V16z M11.1,16.8c0.2,0,0.4-0.2,0.4-0.4v-16
		c0-0.2-0.2-0.4-0.4-0.4H1.5C1.3,0,1.1,0.2,1.1,0.4v16c0,0.2,0.2,0.4,0.4,0.4H11.1z"/>
	<path class="st0" d="M9.2,9.9c0,0.6-0.5,1.1-1,1.1s-1-0.5-1-1.1c0-0.6,0.5-1.1,1-1.1S9.2,9.3,9.2,9.9z M6.4,9.9
		c0,1,0.8,1.9,1.8,1.9c1,0,1.8-0.8,1.8-1.9C10,8.9,9.2,8,8.2,8C7.2,8,6.4,8.9,6.4,9.9"/>
	<path class="st0" d="M32.3,16h-4l2.6-4.8c0.4-0.8,0.4-1.8-0.2-2.5l-2.1-2.5c-0.4-0.5-0.4-1.2-0.1-1.7l0,0l2.5-3.8h1.2V16z
		 M23.4,0.8h6.7l-2.2,3.4C27.3,5,27.4,6,28,6.8l2.1,2.5c0.4,0.4,0.4,1.1,0.1,1.6L27.4,16h-4V0.8z M32.6,16.8c0.2,0,0.4-0.2,0.4-0.4
		v-16C33,0.2,32.9,0,32.6,0H23c-0.2,0-0.4,0.2-0.4,0.4v16c0,0.2,0.2,0.4,0.4,0.4H32.6z"/>
	<path class="st0" d="M24.9,9.9c0-0.6,0.5-1.1,1-1.1c0.6,0,1,0.5,1,1.1c0,0.6-0.5,1.1-1,1.1C25.4,11,24.9,10.5,24.9,9.9z M25.9,8
		c-1,0-1.8,0.8-1.8,1.9c0,1,0.8,1.9,1.8,1.9c1,0,1.8-0.8,1.8-1.9C27.8,8.9,26.9,8,25.9,8"/>
</g>
</svg>
