<!-- Generator: Adobe Illustrator 24.0.2, SVG Export Plug-In  -->
<svg version="1.1" xmlns="http://www.w3.org/2000/svg" xmlns:xlink="http://www.w3.org/1999/xlink" x="0px" y="0px" width="194.1px"
	 height="139.8px" viewBox="0 0 194.1 139.8" style="enable-background:new 0 0 194.1 139.8;" xml:space="preserve">
<style type="text/css">
	.st0{clip-path:url(#SVGID_2_);}
	.st1{opacity:0.43;clip-path:url(#SVGID_4_);}
	.st2{clip-path:url(#SVGID_6_);fill:#A1A1A1;}
	.st3{clip-path:url(#SVGID_6_);}
	.st4{fill:#D04C52;}
	.st5{clip-path:url(#SVGID_8_);}
	.st6{opacity:0.43;clip-path:url(#SVGID_10_);}
	.st7{clip-path:url(#SVGID_12_);fill:#A1A1A1;}
	.st8{clip-path:url(#SVGID_12_);}
</style>
<defs>
</defs>
<g>
	<defs>
		<rect id="SVGID_1_" x="17" y="13" width="100.6" height="124.7"/>
	</defs>
	<clipPath id="SVGID_2_">
		<use xlink:href="#SVGID_1_"  style="overflow:visible;"/>
	</clipPath>
	<g class="st0">
		<defs>
			<rect id="SVGID_3_" x="17" y="13" width="100.6" height="124.7"/>
		</defs>
		<clipPath id="SVGID_4_">
			<use xlink:href="#SVGID_3_"  style="overflow:visible;"/>
		</clipPath>
		<g class="st1">
			<g>
				<defs>
					<rect id="SVGID_5_" width="194.1" height="139.8"/>
				</defs>
				<clipPath id="SVGID_6_">
					<use xlink:href="#SVGID_5_"  style="overflow:visible;"/>
				</clipPath>
				<path class="st2" d="M20.7,45.5l-2.8-2.8c-1.2-1.2-1.2-3.1,0-4.3l24.5-24.5c1.2-1.2,3.1-1.2,4.3,0l24.5,24.5
					c1.2,1.2,1.2,3.1,0,4.3l-2.8,2.8c-1.2,1.2-3.2,1.2-4.3-0.1L49.6,30.2v93.9c0,1.7-1.3,3-3,3h-4c-1.7,0-3-1.3-3-3V30.2L25,45.4
					C23.8,46.6,21.9,46.7,20.7,45.5"/>
				<g class="st3">
					<path class="st4" d="M76.7,96.2c1.8,0,3.5,0.4,5.2,1.1c1.6,0.7,3,1.8,4.2,3.1c1.2,1.3,2.1,3,2.8,5c0.7,2,1,4.2,1,6.7
						s-0.3,4.7-1,6.7c-0.7,2-1.6,3.7-2.8,5c-1.2,1.3-2.6,2.4-4.2,3.1s-3.3,1.1-5.2,1.1c-1.8,0-3.6-0.4-5.2-1.1
						c-1.6-0.7-3-1.8-4.2-3.1c-1.2-1.3-2.1-3-2.8-5c-0.7-2-1-4.2-1-6.7s0.3-4.7,1-6.7c0.7-2,1.6-3.7,2.8-5c1.2-1.3,2.6-2.4,4.2-3.1
						C73.1,96.5,74.8,96.2,76.7,96.2z M76.7,101.9c-2,0-3.7,0.9-5.1,2.7c-1.3,1.8-2,4.3-2,7.5s0.7,5.7,2,7.5c1.3,1.8,3,2.7,5.1,2.7
						c2.1,0,3.8-0.9,5.1-2.7c1.3-1.8,2-4.3,2-7.6c0-3.3-0.7-5.8-2-7.6S78.7,101.9,76.7,101.9z"/>
				</g>
				<g class="st3">
					<path class="st4" d="M66.5,60.9l-3.8-3.8c2.7-3.5,6.2-5.3,10.5-5.3c3.2,0,5.7,0.9,7.6,2.7s2.8,4.2,2.8,7.2
						c0,1.7-0.4,3.3-1.1,4.7c-0.8,1.4-1.9,2.8-3.3,4.3l-6.6,6.8h11.7v5.6H64v-4.6l10.9-11.1c1.7-1.7,2.5-3.5,2.5-5.3
						c0-1.3-0.4-2.4-1.3-3.3c-0.9-0.9-2-1.3-3.4-1.3c-1.3,0-2.5,0.3-3.4,0.9S67.4,59.8,66.5,60.9z"/>
					<path class="st4" d="M101.4,51.8c1.8,0,3.5,0.4,5.2,1.1c1.6,0.7,3,1.8,4.2,3.1c1.2,1.3,2.1,3,2.8,5c0.7,2,1,4.2,1,6.7
						s-0.3,4.7-1,6.7c-0.7,2-1.6,3.7-2.8,5c-1.2,1.3-2.6,2.4-4.2,3.1s-3.3,1.1-5.2,1.1c-1.8,0-3.6-0.4-5.2-1.1
						c-1.6-0.7-3-1.8-4.2-3.1c-1.2-1.3-2.1-3-2.8-5c-0.7-2-1-4.2-1-6.7s0.3-4.7,1-6.7c0.7-2,1.6-3.7,2.8-5c1.2-1.3,2.6-2.4,4.2-3.1
						C97.8,52.2,99.6,51.8,101.4,51.8z M101.4,57.5c-2,0-3.7,0.9-5.1,2.7c-1.3,1.8-2,4.3-2,7.5s0.7,5.7,2,7.5c1.3,1.8,3,2.7,5.1,2.7
						c2.1,0,3.8-0.9,5.1-2.7c1.3-1.8,2-4.3,2-7.6c0-3.3-0.7-5.8-2-7.6S103.5,57.5,101.4,57.5z"/>
				</g>
			</g>
		</g>
	</g>
</g>
</svg>
