<!-- Generator: Adobe Illustrator 24.0.2, SVG Export Plug-In  -->
<svg version="1.1" xmlns="http://www.w3.org/2000/svg" xmlns:xlink="http://www.w3.org/1999/xlink" x="0px" y="0px" width="43.6px"
	 height="40.8px" viewBox="0 0 43.6 40.8" style="enable-background:new 0 0 43.6 40.8;" xml:space="preserve">
<style type="text/css">
	.st0{clip-path:url(#SVGID_2_);fill:#FFFFFF;}
	.st1{clip-path:url(#SVGID_4_);fill:#FFFFFF;}
</style>
<defs>
</defs>
<g>
	<defs>
		<rect id="SVGID_1_" x="0" width="43.6" height="40.8"/>
	</defs>
	<clipPath id="SVGID_2_">
		<use xlink:href="#SVGID_1_"  style="overflow:visible;"/>
	</clipPath>
	<path class="st0" d="M7.3,14.6v17.5H4c-0.6,0-1.1,0.5-1.1,1.1V35h37.8v-1.8c0-0.6-0.5-1.1-1.1-1.1h-3.3V14.6h-5.8v17.5h-5.8V14.6
		h-5.8v17.5h-5.8V14.6H7.3z M41.5,36.4H2.2c-1.2,0-2.2,1-2.2,2.2v1.5c0,0.4,0.3,0.7,0.7,0.7h42.2c0.4,0,0.7-0.3,0.7-0.7v-1.5
		C43.6,37.4,42.7,36.4,41.5,36.4 M43.6,8.7v1.5c0,0.4-0.3,0.7-0.7,0.7h-2.2V12c0,0.6-0.5,1.1-1.1,1.1H4c-0.6,0-1.1-0.5-1.1-1.1v-1.1
		H0.7c-0.4,0-0.7-0.3-0.7-0.7V8.7c0-0.3,0.2-0.6,0.4-0.7l21.1-8c0.2-0.1,0.4-0.1,0.6,0l21.1,8C43.5,8.2,43.6,8.4,43.6,8.7"/>
</g>
</svg>
