<!-- Generator: Adobe Illustrator 22.0.1, SVG Export Plug-In  -->
<svg version="1.1"
     xmlns="http://www.w3.org/2000/svg" xmlns:xlink="http://www.w3.org/1999/xlink"
     x="0px" y="0px" width="144px" height="95.1px" viewBox="0 0 144 95.1" style="enable-background:new 0 0 144 95.1;"
     xml:space="preserve">
<style type="text/css">
	.st0{clip-path:url(#SVGID_2_);fill:#D04C52;}
	.st1{clip-path:url(#SVGID_2_);fill:#A1A1A1;}
	.st2{fill:none;}
	.st3{clip-path:url(#SVGID_4_);fill:#D04C52;}
	.st4{clip-path:url(#SVGID_4_);fill:#A1A1A1;}
</style>
    <defs>
</defs>
    <g>
	<defs>
		<rect id="SVGID_1_" x="36" y="0" width="72.3" height="95.1"/>
	</defs>
        <clipPath id="SVGID_2_">
		<use xlink:href="#SVGID_1_"  style="overflow:visible;"/>
	</clipPath>
        <path class="st0" d="M108.3,22.7v1.1H84.2V0h1.1c1.2,0,2.3,0.5,3.2,1.3L107,19.5C107.8,20.3,108.3,21.5,108.3,22.7"/>
        <path class="st1" d="M96.4,77.3H48.2l0.1-9l7.4-7.3c0.9-0.9,2.2-0.8,3.1,0.1l7.4,7.3l19.5-19.2c0.9-0.9,2.3-0.9,3.2,0l7.4,7.3V77.3
		z M66.2,41.6c0,4.9-4,8.9-9,8.9c-5,0-9-4-9-8.9c0-4.9,4-8.9,9-8.9C62.2,32.7,66.2,36.7,66.2,41.6 M108.3,90.7V29.7H82.7
		c-2.5,0-4.5-2-4.5-4.5V0H40.5C38,0,36,2,36,4.5v86.2c0,2.5,2,4.5,4.5,4.5h63.3C106.3,95.1,108.3,93.1,108.3,90.7"/>
</g>
    <rect y="0.1" class="st2" width="36" height="95"/>
    <rect x="108" y="0.1" class="st2" width="36" height="95"/>
</svg>