<!-- Generator: Adobe Illustrator 24.0.2, SVG Export Plug-In  -->
<svg version="1.1" xmlns="http://www.w3.org/2000/svg" xmlns:xlink="http://www.w3.org/1999/xlink" x="0px" y="0px" width="167.7px"
	 height="120.9px" viewBox="0 0 167.7 120.9" style="enable-background:new 0 0 167.7 120.9;" xml:space="preserve">
<style type="text/css">
	.st0{clip-path:url(#SVGID_2_);}
	.st1{opacity:0.43;clip-path:url(#SVGID_4_);}
	.st2{clip-path:url(#SVGID_6_);fill:#D04C52;}
	.st3{clip-path:url(#SVGID_6_);fill:#A1A1A1;}
	.st4{clip-path:url(#SVGID_8_);}
	.st5{opacity:0.43;clip-path:url(#SVGID_10_);}
	.st6{clip-path:url(#SVGID_12_);fill:#D04C52;}
	.st7{clip-path:url(#SVGID_12_);fill:#A1A1A1;}
</style>
<defs>
</defs>
<g>
	<defs>
		<rect id="SVGID_1_" x="17" y="13" width="133.7" height="106.9"/>
	</defs>
	<clipPath id="SVGID_2_">
		<use xlink:href="#SVGID_1_"  style="overflow:visible;"/>
	</clipPath>
	<g class="st0">
		<defs>
			<rect id="SVGID_3_" x="17" y="13" width="133.7" height="106.9"/>
		</defs>
		<clipPath id="SVGID_4_">
			<use xlink:href="#SVGID_3_"  style="overflow:visible;"/>
		</clipPath>
		<g class="st1">
			<g>
				<defs>
					<rect id="SVGID_5_" width="167.7" height="120.9"/>
				</defs>
				<clipPath id="SVGID_6_">
					<use xlink:href="#SVGID_5_"  style="overflow:visible;"/>
				</clipPath>
				<path class="st2" d="M147.3,106.6h-16.7V36.7c0-5.7-4.5-10.3-10-10.3H97.2v13.4h20v80.2h30.1c1.8,0,3.3-1.5,3.3-3.3v-6.7
					C150.7,108.1,149.2,106.6,147.3,106.6"/>
				<path class="st3" d="M72.1,73.1c-2.8,0-5-3-5-6.7c0-3.7,2.2-6.7,5-6.7s5,3,5,6.7C77.1,70.2,74.9,73.1,72.1,73.1 M82.2,13.2
					L42.1,23.6c-3,0.8-5.1,3.5-5.1,6.7v76.2H20.3c-1.8,0-3.3,1.5-3.3,3.3v6.7c0,1.8,1.5,3.3,3.3,3.3h70.2v-100
					C90.5,15.4,86.4,12.1,82.2,13.2"/>
			</g>
		</g>
	</g>
</g>
</svg>
