<!-- Generator: Adobe Illustrator 24.0.2, SVG Export Plug-In  -->
<svg version="1.1" xmlns="http://www.w3.org/2000/svg" xmlns:xlink="http://www.w3.org/1999/xlink" x="0px" y="0px" width="40.8px"
	 height="40.8px" viewBox="0 0 40.8 40.8" style="enable-background:new 0 0 40.8 40.8;" xml:space="preserve">
<style type="text/css">
	.st0{clip-path:url(#SVGID_2_);fill:#FFFFFF;}
	.st1{clip-path:url(#SVGID_4_);fill:#FFFFFF;}
</style>
<defs>
</defs>
<g>
	<defs>
		<rect id="SVGID_1_" x="0" y="0" width="40.8" height="40.8"/>
	</defs>
	<clipPath id="SVGID_2_">
		<use xlink:href="#SVGID_1_"  style="overflow:visible;"/>
	</clipPath>
	<path class="st0" d="M9.6,7.3L8.6,9.1c1.1,0.6,2.5,0.4,3.4-0.4l3.8,1.9c0,0,0,0,0,0l9.1,4.5l2.6-1l0.5,1.5c0.3,1,1,1.8,1.9,2.2
		l4.6,2.3c1.3,0.6,2.8,0.1,3.4-1.1c0.6-1.3,0.1-2.8-1.1-3.4l-4.2-2.1l-1.4-4.1c-0.6-1.9-3.3-4.5-6.7-3.1l-6.5,2.6l-5-2.5
		c0-1.2-0.6-2.3-1.7-2.8l-0.9,1.7h0L7.8,4.7c-0.1,0-0.3,0-0.4,0.1c-0.2,0.2-0.1,0.4,0,0.6L9.6,7.3z M40.3,36c-0.7-0.8-2-0.8-2.7,0
		c-1,1-2.4,1.2-3.6,0.7l-10.8-5.6l3.9-5.9c1-1.5,0.8-3.5-0.5-4.8l-3.2-3.2L14.8,13c-0.2,1.6,0.3,3.2,1.4,4.3l6,6l-3.7,5.5L2.8,20.6
		c-0.9-0.5-2.1-0.1-2.6,0.8C-0.3,22.4,0.1,23.5,1,24l31.2,16.1c0.9,0.4,2,0.6,3,0.6c1.8,0,3.7-0.7,5-2.1C41,38,41,36.8,40.3,36
		 M34.4,7.7c2.1,0,3.8-1.7,3.8-3.8c0-2.1-1.7-3.8-3.8-3.8c-2.1,0-3.8,1.7-3.8,3.8C30.6,5.9,32.3,7.7,34.4,7.7"/>
</g>
</svg>
