<!-- Generator: Adobe Illustrator 24.0.2, SVG Export Plug-In  -->
<svg version="1.1" xmlns="http://www.w3.org/2000/svg" xmlns:xlink="http://www.w3.org/1999/xlink" x="0px" y="0px" width="35.6px"
	 height="35.6px" viewBox="0 0 35.6 35.6" style="enable-background:new 0 0 35.6 35.6;" xml:space="preserve">
<style type="text/css">
	.st0{clip-path:url(#SVGID_2_);fill:#FFFFFF;}
	.st1{clip-path:url(#SVGID_4_);fill:#FFFFFF;}
</style>
<defs>
</defs>
<g>
	<defs>
		<rect id="SVGID_1_" width="35.6" height="35.6"/>
	</defs>
	<clipPath id="SVGID_2_">
		<use xlink:href="#SVGID_1_"  style="overflow:visible;"/>
	</clipPath>
	<path class="st0" d="M33.4,15.6c-1.2,0-2.2,1-2.2,2.2c0,1.2,1,2.2,2.2,2.2c1.2,0,2.2-1,2.2-2.2C35.6,16.6,34.6,15.6,33.4,15.6
		 M26.7,2.2c-1.2,0-2.2,1-2.2,2.2c0,1.2,1,2.2,2.2,2.2s2.2-1,2.2-2.2C28.9,3.2,27.9,2.2,26.7,2.2 M20,2.2c-1.2,0-2.2,1-2.2,2.2
		c0,1.2,1,2.2,2.2,2.2s2.2-1,2.2-2.2C22.2,3.2,21.2,2.2,20,2.2 M26.7,8.9c-1.2,0-2.2,1-2.2,2.2c0,1.2,1,2.2,2.2,2.2s2.2-1,2.2-2.2
		C28.9,9.9,27.9,8.9,26.7,8.9 M33.4,6.7c1.2,0,2.2-1,2.2-2.2c0-1.2-1-2.2-2.2-2.2c-1.2,0-2.2,1-2.2,2.2C31.1,5.7,32.1,6.7,33.4,6.7
		 M11.1,28.9c-3.1,0-5.6-2.5-5.6-5.6c0-3.1,2.5-5.6,5.6-5.6s5.6,2.5,5.6,5.6C16.7,26.4,14.2,28.9,11.1,28.9 M15.6,11.1H6.7
		c-3.7,0-6.7,3-6.7,6.7v15.6c0,1.2,1,2.2,2.2,2.2H20c1.2,0,2.2-1,2.2-2.2V17.8C22.2,14.1,19.2,11.1,15.6,11.1 M33.4,8.9
		c-1.2,0-2.2,1-2.2,2.2c0,1.2,1,2.2,2.2,2.2c1.2,0,2.2-1,2.2-2.2C35.6,9.9,34.6,8.9,33.4,8.9 M15.6,2.2c0-1.2-1-2.2-2.2-2.2H8.9
		C7.7,0,6.7,1,6.7,2.2v6.7h8.9V2.2z"/>
</g>
</svg>
