<!-- Generator: Adobe Illustrator 24.0.2, SVG Export Plug-In  -->
<svg version="1.1" xmlns="http://www.w3.org/2000/svg" xmlns:xlink="http://www.w3.org/1999/xlink" x="0px" y="0px" width="156.3px"
	 height="136.3px" viewBox="0 0 156.3 136.3" style="enable-background:new 0 0 156.3 136.3;" xml:space="preserve">
<style type="text/css">
	.st0{clip-path:url(#SVGID_2_);}
	.st1{opacity:0.43;clip-path:url(#SVGID_4_);}
	.st2{clip-path:url(#SVGID_6_);fill:#A1A1A1;}
	.st3{clip-path:url(#SVGID_6_);fill:#D04C52;}
	.st4{clip-path:url(#SVGID_8_);}
	.st5{opacity:0.43;clip-path:url(#SVGID_10_);}
	.st6{clip-path:url(#SVGID_12_);fill:#A1A1A1;}
	.st7{clip-path:url(#SVGID_12_);fill:#D04C52;}
</style>
<defs>
</defs>
<g>
	<defs>
		<rect id="SVGID_1_" x="17" y="13" width="122.3" height="122.3"/>
	</defs>
	<clipPath id="SVGID_2_">
		<use xlink:href="#SVGID_1_"  style="overflow:visible;"/>
	</clipPath>
	<g class="st0">
		<defs>
			<rect id="SVGID_3_" x="17" y="13" width="122.3" height="122.3"/>
		</defs>
		<clipPath id="SVGID_4_">
			<use xlink:href="#SVGID_3_"  style="overflow:visible;"/>
		</clipPath>
		<g class="st1">
			<g>
				<defs>
					<rect id="SVGID_5_" width="156.3" height="136.3"/>
				</defs>
				<clipPath id="SVGID_6_">
					<use xlink:href="#SVGID_5_"  style="overflow:visible;"/>
				</clipPath>
				<path class="st2" d="M78.2,123.5c-27.3,0-49.3-22.1-49.3-49.3c0-27.3,22.1-49.3,49.3-49.3s49.3,22.1,49.3,49.3
					C127.5,101.4,105.4,123.5,78.2,123.5 M78.2,13C44.4,13,17,40.4,17,74.2c0,33.8,27.4,61.2,61.2,61.2s61.2-27.4,61.2-61.2
					C139.3,40.4,111.9,13,78.2,13"/>
				<path class="st3" d="M93.4,97.7L72.5,82.5c-0.8-0.6-1.2-1.5-1.2-2.4V39.6c0-1.6,1.3-3,3-3h7.9c1.6,0,3,1.3,3,3v34.9l16.5,12
					c1.3,1,1.6,2.8,0.6,4.1l-4.6,6.4C96.6,98.4,94.7,98.7,93.4,97.7"/>
			</g>
		</g>
	</g>
</g>
</svg>
 