<!-- Generator: Adobe Illustrator 22.0.1, SVG Export Plug-In  -->
<svg version="1.1"
     xmlns="http://www.w3.org/2000/svg" xmlns:xlink="http://www.w3.org/1999/xlink"
     x="0px" y="0px" width="122.3px" height="97.8px" viewBox="0 0 122.3 97.8" style="enable-background:new 0 0 122.3 97.8;"
     xml:space="preserve">
<style type="text/css">
	.st0{clip-path:url(#SVGID_2_);fill:#A1A1A1;}
	.st1{clip-path:url(#SVGID_2_);fill:#D04C52;}
	.st2{clip-path:url(#SVGID_4_);fill:#A1A1A1;}
	.st3{clip-path:url(#SVGID_4_);fill:#D04C52;}
</style>
    <defs>
</defs>
    <g>
	<defs>
		<rect id="SVGID_1_" width="122.3" height="97.8"/>
	</defs>
        <clipPath id="SVGID_2_">
		<use xlink:href="#SVGID_1_"  style="overflow:visible;"/>
	</clipPath>
        <path class="st0" d="M53.3,97.7l-11.7-3.4c-1.2-0.3-1.9-1.6-1.6-2.8L66.2,1.7c0.3-1.2,1.6-1.9,2.8-1.6l11.7,3.4
		c1.2,0.3,1.9,1.6,1.6,2.8L56.2,96.2C55.8,97.4,54.5,98.1,53.3,97.7"/>
        <path class="st1" d="M31.5,76.3l8.3-8.9c0.9-0.9,0.8-2.4-0.2-3.3L22.4,48.9l17.3-15.2c1-0.9,1.1-2.3,0.2-3.3l-8.3-8.9
		c-0.9-0.9-2.3-1-3.2-0.1L0.7,47.2c-1,0.9-1,2.4,0,3.3l27.5,25.8C29.2,77.3,30.7,77.2,31.5,76.3"/>
        <path class="st1" d="M94,76.4l27.5-25.8c1-0.9,1-2.4,0-3.3L94,21.4c-0.9-0.9-2.4-0.8-3.2,0.1l-8.3,8.9c-0.9,0.9-0.8,2.4,0.2,3.3
		L100,48.9L82.6,64.1c-1,0.9-1.1,2.4-0.2,3.3l8.3,8.9C91.7,77.2,93.1,77.3,94,76.4"/>
</g>
</svg>